<svg xmlns="http://www.w3.org/2000/svg" xmlns:xlink="http://www.w3.org/1999/xlink" viewBox="0 0 622.89 366.61"><defs><style>.cls-1{fill:none;}.cls-2{fill:#282828;}.cls-3{fill:#424242;}.cls-16,.cls-3,.cls-8,.cls-9{fill-rule:evenodd;}.cls-4{fill:#f2f8f8;}.cls-5{fill:#202020;}.cls-6{fill:#e3e3e3;}.cls-7{fill:#da0100;}.cls-8{fill:#363636;}.cls-10,.cls-9{fill:#fff;}.cls-11{fill:#c9c9c9;}.cls-12{fill:#94caee;}.cls-13{fill:#ecb66a;}.cls-14{fill:#e69696;}.cls-15{fill:#7f7f7f;}.cls-16{fill:#aeffd4;}.cls-17{fill:#93ffb8;}.cls-18{fill:#f5f5f5;}.cls-19{fill:#263238;}.cls-20{clip-path:url(#clip-path);}.cls-21{fill:#e8505b;}.cls-22{opacity:0.8;}.cls-23{opacity:0.7;}.cls-24{opacity:0.5;}.cls-25{opacity:0.3;}.cls-26{opacity:0.1;}.cls-27{fill:#e0e0e0;}.cls-28{fill:#455a64;}.cls-29{opacity:0.6;}.cls-30{fill:#ffbe9d;}.cls-31{fill:#ebebeb;}</style><clipPath id="clip-path"><path class="cls-1" d="M447.62,106.33a42.26,42.26,0,1,1,60.61.92L529.5,128a71.44,71.44,0,1,0-101.32-.66Z"/></clipPath></defs><title>optimize-video</title><g id="Capa_2" data-name="Capa 2"><g id="Plants"><rect class="cls-2" x="61.42" y="22.42" width="483.31" height="273.92" rx="21.4" ry="21.4"/><path class="cls-3" d="M316.08,22.42H523.34a21.4,21.4,0,0,1,21.4,21.4V274.94a21.4,21.4,0,0,1-21.4,21.4H431.28Z"/><rect class="cls-4" x="77.88" y="37.29" width="450.39" height="244.18"/><rect class="cls-5" x="104.79" y="53.79" width="200.17" height="136.96"/><rect class="cls-6" x="104.79" y="154.21" width="200.17" height="2.37"/><rect class="cls-7" x="104.79" y="154.21" width="109.92" height="2.37"/><path class="cls-8" d="M204.88,146a23.7,23.7,0,1,0-23.7-23.7A23.75,23.75,0,0,0,204.88,146Z"/><polygon class="cls-9" points="222.35 122.27 195.96 137.44 195.96 107.1 222.35 122.27"/><circle class="cls-10" cx="299.33" cy="59.35" r="3.5"/><path class="cls-8" d="M299,58.62h.71v2.44H299V58.62Zm.36-1A.36.36,0,1,1,299,58,.36.36,0,0,1,299.33,57.65Z"/><path class="cls-9" d="M113.52,169h1.11v5.48h-1.11V169Zm1.74,0h1.11v5.48h-1.11Z"/><path class="cls-9" d="M129.47,169h.8v5.46h-.8V169Zm-.22,2.73-4.3,2.73V169Z"/><path class="cls-9" d="M141.82,174.06v-.51a2.31,2.31,0,0,0,0-3.6v-.52a2.73,2.73,0,0,1,0,4.63Zm0-1.1a1.89,1.89,0,0,0,0-2.43v1a1.49,1.49,0,0,1,0,.51Zm0-3.53v.52a2.31,2.31,0,0,0-.42-.27v-.06l.16-.33.26.14Zm0,1.1v1a1.47,1.47,0,0,0-.42-.8v-.54a1.91,1.91,0,0,1,.42.37Zm0,1.47v1a1.91,1.91,0,0,1-.42.37v-.54a1.47,1.47,0,0,0,.42-.8Zm0,1.55v.51l-.26.14-.16-.33v-.06a2.31,2.31,0,0,0,.42-.27ZM141.4,172v-.43a1.06,1.06,0,0,1,0,.43Zm-3.39.94,1.89,1.58V169L138,170.59h-.85v2.31Zm3.39-3.28v.06h0l0,0Zm0,.54v.54a1.48,1.48,0,0,0-.39-.27l.18-.38.21.12Zm0,1.37V172a1.05,1.05,0,0,1-.57.73l-.18-.38a.63.63,0,0,0,0-1.14l.18-.38a1.05,1.05,0,0,1,.57.73Zm0,1.27v.54l-.21.12-.18-.38a1.48,1.48,0,0,0,.39-.27Zm0,1v.06l0,0Z"/><rect class="cls-10" x="149.01" y="170.74" width="10.08" height="1.88"/><path class="cls-9" d="M254.15,169.31h0v.55l.39-.39c.12-.12.46,0,.77.33s.45.65.33.77h0l-.39.39h.55c.17,0,.3.35.3.78s-.14.78-.3.78h-.55l.39.39c.12.12,0,.46-.33.77s-.65.45-.77.33h0l-.39-.39v.55h0c0,.17-.35.3-.78.3v-1.78a.95.95,0,1,0,0-1.89V169C253.8,169,254.15,169.15,254.15,169.31Zm-.78,5.16h0c-.43,0-.78-.14-.78-.3v-.55l-.39.39h0c-.12.12-.46,0-.77-.33s-.45-.65-.33-.77l.39-.39h-.55c-.17,0-.3-.35-.3-.78s.14-.78.3-.78h.55l-.39-.39h0c-.12-.12,0-.46.33-.77s.65-.45.77-.33l.39.39v-.55c0-.17.35-.3.78-.3h0v1.78h0a.95.95,0,0,0,0,1.89h0Z"/><path class="cls-9" d="M292.49,169h1.91v.69h-1.22v1.22h-.69V169Zm3.55,0h1.91v1.91h-.69V169.7H296V169Zm1.91,3.55v1.91H296v-.69h1.22v-1.22Zm-3.55,1.91h-1.91v-1.91h.69v1.22h1.22Z"/><path class="cls-9" d="M281.77,169h5v5.46h-5v-.67h4.29v-4.12h-4.29Zm-5,0h5v.67h-4.29v4.12h4.29v.67h-5V169Zm-.82,1.86h.63v1.74h-.63Z"/><path class="cls-9" d="M268.62,169h2.3v5.45h-2.3v-.66h1.6v-4.13h-1.6V169Zm0,4.47h1.22v-1.33h-1.22ZM262.77,169h5.85v.66h-5.15v4.13h5.15v.66h-5.85V169Zm5.85,3.14h-1.22v1.33h1.22Z"/><path class="cls-9" d="M239.86,169H245v5.46h-5.19v-3.28a4.76,4.76,0,0,1,2.22,1c.48.29.63.21.84,0a1.31,1.31,0,0,1,1-.47,2.06,2.06,0,0,1,.38.06v-2.07h-4.48V169Zm0,1.64a.38.38,0,0,0,0-.76Zm-3-1.64h3v.66h-2.29v2a6,6,0,0,1,2.05-.47h.24v3.28h-3V169Zm3,.88h0a.38.38,0,0,0,0,.76h0Z"/><rect class="cls-11" x="104.66" y="198.34" width="199.38" height="3.2"/><rect class="cls-11" x="104.66" y="204.5" width="199.38" height="3.2"/><rect class="cls-11" x="104.66" y="210.67" width="199.38" height="3.2"/><rect class="cls-11" x="104.66" y="216.84" width="199.38" height="3.2"/><rect class="cls-5" x="327.18" y="58.88" width="68.73" height="38.78"/><path class="cls-8" d="M361.54,85.45a7.18,7.18,0,1,0-7.18-7.18A7.19,7.19,0,0,0,361.54,85.45Z"/><polygon class="cls-9" points="366.84 78.27 358.84 82.86 358.84 73.67 366.84 78.27"/><rect class="cls-5" x="327.18" y="102.97" width="68.73" height="38.78"/><path class="cls-8" d="M361.54,129.54a7.18,7.18,0,1,0-7.18-7.18A7.19,7.19,0,0,0,361.54,129.54Z"/><polygon class="cls-9" points="366.84 122.36 358.84 126.96 358.84 117.77 366.84 122.36"/><rect class="cls-5" x="327.18" y="147.07" width="68.73" height="38.78"/><path class="cls-8" d="M361.54,173.64a7.18,7.18,0,1,0-7.18-7.18A7.19,7.19,0,0,0,361.54,173.64Z"/><polygon class="cls-9" points="366.84 166.46 358.84 171.05 358.84 161.86 366.84 166.46"/><rect class="cls-5" x="327.18" y="191.16" width="68.73" height="38.78"/><path class="cls-8" d="M361.54,217.73a7.18,7.18,0,1,0-7.18-7.18A7.19,7.19,0,0,0,361.54,217.73Z"/><polygon class="cls-9" points="366.84 210.55 358.84 215.15 358.84 205.96 366.84 210.55"/><rect class="cls-5" x="327.18" y="235.25" width="68.73" height="38.78"/><path class="cls-8" d="M361.54,261.82a7.18,7.18,0,1,0-7.18-7.18A7.19,7.19,0,0,0,361.54,261.82Z"/><polygon class="cls-9" points="366.84 254.64 358.84 259.24 358.84 250.05 366.84 254.64"/><rect class="cls-12" x="270.35" y="223.65" width="12.51" height="12.51"/><rect class="cls-13" x="289.12" y="223.65" width="12.51" height="12.51"/><rect class="cls-14" x="251.58" y="223.65" width="12.51" height="12.51"/><rect class="cls-15" x="177.18" y="243.08" width="54.65" height="6.58"/><rect class="cls-11" x="104.66" y="257" width="199.38" height="3.2"/><rect class="cls-11" x="104.66" y="263.16" width="88.98" height="3.2"/><rect class="cls-11" x="402.15" y="60" width="91.9" height="2.71"/><rect class="cls-11" x="402.15" y="65.23" width="91.9" height="2.71"/><rect class="cls-11" x="402.15" y="70.46" width="91.9" height="2.71"/><rect class="cls-11" x="402.15" y="75.69" width="31.32" height="2.71"/><rect class="cls-11" x="402.15" y="92.02" width="39.86" height="2.71"/><rect class="cls-11" x="402.15" y="103.83" width="91.9" height="2.71"/><rect class="cls-11" x="402.15" y="109.06" width="91.9" height="2.71"/><rect class="cls-11" x="402.15" y="114.29" width="77.4" height="2.71"/><rect class="cls-11" x="402.15" y="135.85" width="39.86" height="2.71"/><rect class="cls-11" x="402.15" y="147.17" width="91.9" height="2.71"/><rect class="cls-11" x="402.15" y="152.4" width="29.49" height="2.71"/><rect class="cls-11" x="402.15" y="179.19" width="39.86" height="2.71"/><rect class="cls-11" x="402.15" y="193.22" width="91.9" height="2.71"/><rect class="cls-11" x="402.15" y="198.45" width="91.9" height="2.71"/><rect class="cls-11" x="402.15" y="203.68" width="69.16" height="2.71"/><rect class="cls-11" x="402.15" y="225.24" width="39.86" height="2.71"/><rect class="cls-11" x="402.15" y="235.33" width="91.9" height="2.71"/><rect class="cls-11" x="402.15" y="240.56" width="91.9" height="2.71"/><rect class="cls-11" x="402.15" y="245.79" width="91.9" height="2.71"/><rect class="cls-11" x="402.15" y="251.02" width="11.79" height="2.71"/><rect class="cls-11" x="402.15" y="267.35" width="39.86" height="2.71"/><path class="cls-16" d="M478.15,43.23h10.42a2.84,2.84,0,0,1,0,5.67H478.15a2.84,2.84,0,1,1,0-5.67Z"/><circle class="cls-17" cx="488.85" cy="46.07" r="4.69"/><rect class="cls-11" x="328.72" y="45.05" width="59.43" height="3.62"/></g><g id="Character"><circle class="cls-18" cx="479.16" cy="78.85" r="78.73"/><path class="cls-19" d="M557.89,78.85s0-.43,0-1.28l0-1.57c0-.63,0-1.35-.11-2.17l-.22-2.75c-.1-1-.27-2.11-.41-3.31a83,83,0,0,0-1.6-8.15,78.06,78.06,0,0,0-3.23-9.88,76,76,0,0,0-5.48-11.08,79.58,79.58,0,0,0-20-22.35,78.44,78.44,0,0,0-33.1-14.69,79.89,79.89,0,0,0-30.8.35,77.57,77.57,0,0,0-20.73,7.57,82.88,82.88,0,0,0-9.68,6.13,86.14,86.14,0,0,0-8.87,7.64,84.77,84.77,0,0,0-7.76,9.06,77.43,77.43,0,0,0-6.41,10.31c-.45.92-1,1.81-1.37,2.75l-1.27,2.81c-.76,1.91-1.54,3.83-2.17,5.81a76.5,76.5,0,0,0-3,12.16,84.85,84.85,0,0,0-1,12.65,85,85,0,0,0,1,12.65,76.66,76.66,0,0,0,3,12.16l.5,1.47.25.74.28.72,1.14,2.88,1.27,2.81c.41.94.92,1.83,1.37,2.75a77.34,77.34,0,0,0,6.41,10.32,84.67,84.67,0,0,0,7.76,9.06,86.11,86.11,0,0,0,8.87,7.64,78.74,78.74,0,0,0,19.91,10.7,83.86,83.86,0,0,0,10.51,3,79.89,79.89,0,0,0,30.8.35,78.44,78.44,0,0,0,33.1-14.69,79.58,79.58,0,0,0,20-22.35A76,76,0,0,0,552.23,108a78,78,0,0,0,3.22-9.88,83,83,0,0,0,1.6-8.15c.15-1.19.31-2.29.41-3.3l.22-2.75c.08-.82.1-1.55.11-2.17l0-1.57c0-.84,0-1.28,0-1.28s0,.43,0,1.28l0,1.57c0,.63,0,1.35-.1,2.17l-.2,2.76c-.1,1-.26,2.11-.4,3.31a82.23,82.23,0,0,1-1.57,8.17,77.79,77.79,0,0,1-3.2,9.91,75.91,75.91,0,0,1-5.46,11.12,79.65,79.65,0,0,1-20,22.44,78.61,78.61,0,0,1-33.19,14.77,80.11,80.11,0,0,1-30.91-.33,84.11,84.11,0,0,1-10.55-3,79,79,0,0,1-20-10.74,86.38,86.38,0,0,1-8.91-7.67,85,85,0,0,1-7.8-9.1,77.62,77.62,0,0,1-6.43-10.36c-.45-.92-1-1.81-1.37-2.76l-1.28-2.82-1.14-2.89-.29-.72-.25-.74-.5-1.48a76.94,76.94,0,0,1-3-12.21,85.23,85.23,0,0,1-1-12.7,85.13,85.13,0,0,1,1-12.7,76.78,76.78,0,0,1,3-12.2c.63-2,1.42-3.91,2.18-5.83l1.27-2.82c.41-.95.92-1.84,1.37-2.76a77.71,77.71,0,0,1,6.43-10.35,85,85,0,0,1,7.8-9.09,86.39,86.39,0,0,1,8.9-7.66,79,79,0,0,1,20-10.73,84.1,84.1,0,0,1,10.55-3,80.11,80.11,0,0,1,30.91-.33,78.61,78.61,0,0,1,33.19,14.77,79.65,79.65,0,0,1,20,22.44,75.93,75.93,0,0,1,5.46,11.12,77.81,77.81,0,0,1,3.21,9.91,82.26,82.26,0,0,1,1.57,8.17c.14,1.2.3,2.3.4,3.31l.2,2.76c.07.82.09,1.55.1,2.17l0,1.57C557.89,78.42,557.89,78.85,557.89,78.85Z"/><g class="cls-20"><path class="cls-21" d="M447.62,106.33a42.26,42.26,0,1,1,60.61.92L529.5,128a71.44,71.44,0,1,0-101.32-.66Z"/><g class="cls-22"><path d="M516.55,77H555s-3.89,31.28-4.66,31.86-23.51,26.81-23.51,26.81L501,104.94Z"/></g><g class="cls-23"><polygon points="506.18 51.1 533.37 24.41 552.51 52.97 555.06 76.97 517.01 76.97 510.08 61.71 506.18 51.1"/></g><g class="cls-24"><path d="M480.84,41.42c-.47-.78,0-38.46,0-38.46L504.26,5.9l28.84,18.62L505.4,51.72l-17.45-2.53Z"/></g><g class="cls-25"><path d="M425,25.88c.58.19,25.84,27.2,25.84,27.2l22.53-8.94,7.23-9L480.84,3,454,5.9Z"/></g><g class="cls-26"><path d="M405.19,77c.58.39,42.74,0,42.74,0l-.74-27.74L426.84,27.64,413,44.14Z"/></g></g><circle class="cls-27" cx="479.96" cy="78.85" r="16.4"/><path class="cls-28" d="M475.13,79.95h0a4.66,4.66,0,0,0,5.74,3.17l57-16.19L479,74A4.66,4.66,0,0,0,475.13,79.95Z"/><polygon class="cls-21" points="607.81 345.78 612.06 352.64 622.89 340.14 617.18 334.09 607.81 345.78"/><path class="cls-19" d="M621.92,338.86a10.3,10.3,0,0,1-1.46,1.93c-1,1.14-2.33,2.67-3.88,4.33l-4,4.22a11.81,11.81,0,0,1-1.74,1.68,10.4,10.4,0,0,1,1.46-1.92c1-1.14,2.34-2.67,3.88-4.33l4-4.22A11.91,11.91,0,0,1,621.92,338.86Z"/><ellipse class="cls-19" cx="614.44" cy="341.95" rx="0.26" ry="3.48" transform="translate(-60.94 537.72) rotate(-45.26)"/><g class="cls-29"><polyline class="cls-10" points="612.06 352.64 622.89 340.14 621.81 338.99 610.76 351.13 611.92 352.52"/></g><path class="cls-21" d="M522.45,362.16l0-1.69,17.09.13,0,5.56-1.06.06c-4.7.22-23.9.79-27-.11C508,365.11,522.45,362.16,522.45,362.16Z"/><g class="cls-29"><path class="cls-10" d="M533.37,366a5.46,5.46,0,0,1,2.2-3.36,6.05,6.05,0,0,1,4-1.13l0,4.42Z"/></g><g class="cls-29"><path class="cls-10" d="M515.37,363.84s-5.08,1.33-4.46,2.11,20,.88,28.62.23l0-.35-22.66.06S516.36,363.88,515.37,363.84Z"/></g><path class="cls-19" d="M539.78,365.81l-.29,0-.84,0-3.09.11c-2.61.07-6.22.13-10.21.11s-7.6-.11-10.21-.21l-3.09-.14-.84-.05-.29,0H512l3.09.07c2.61.06,6.22.13,10.21.15s7.59,0,10.21-.06l3.09,0h1.14Z"/><path class="cls-19" d="M516.85,366.13a6.18,6.18,0,0,0-.56-1.38,6.65,6.65,0,0,0-1-1.11,2.26,2.26,0,0,1,1.22,1A2,2,0,0,1,516.85,366.13Z"/><path class="cls-19" d="M521.9,363.79s-.29-.24-.53-.61-.4-.68-.36-.71.29.24.53.61S521.94,363.76,521.9,363.79Z"/><path class="cls-19" d="M523.28,363.12s-.31-.13-.6-.37-.5-.48-.46-.52.31.13.6.38S523.32,363.08,523.28,363.12Z"/><ellipse class="cls-19" cx="523.28" cy="361.63" rx="0.89" ry="0.1" transform="matrix(1, -0.01, 0.01, 1, -1.91, 2.77)"/><path class="cls-19" d="M524.47,360.58a1.82,1.82,0,0,1-1,.26,1.84,1.84,0,0,1-1-.13,82.67,82.67,0,0,0,2-.13Z"/><path class="cls-19" d="M521.33,362.4a3.39,3.39,0,0,1-1.09,0,6.82,6.82,0,0,1-1.16-.24,3.32,3.32,0,0,1-.66-.26.56.56,0,0,1-.27-.32.39.39,0,0,1,.17-.41,2.09,2.09,0,0,1,2.47.56,1.76,1.76,0,0,1,.35.68c0,.17,0,.27,0,.27a2.78,2.78,0,0,0-.49-.87,2,2,0,0,0-.93-.57,1.81,1.81,0,0,0-1.3.08c-.17.12-.11.31.08.42a3.37,3.37,0,0,0,.61.25,8,8,0,0,0,1.12.28C520.91,362.37,521.33,362.37,521.33,362.4Z"/><path class="cls-19" d="M521,362.45a1,1,0,0,1-.12-.71,1.6,1.6,0,0,1,.31-.74,1.11,1.11,0,0,1,.91-.51.4.4,0,0,1,.33.47,1.07,1.07,0,0,1-.19.45,3.14,3.14,0,0,1-.52.61,1.6,1.6,0,0,1-.63.41s.22-.18.52-.5a3.57,3.57,0,0,0,.46-.61c.15-.21.26-.6,0-.65a1,1,0,0,0-.72.43,1.62,1.62,0,0,0-.32.66A3.45,3.45,0,0,0,521,362.45Z"/><path class="cls-19" d="M539.47,361.48s-.49,0-1.26,0a5.75,5.75,0,0,0-2.75,1,5.15,5.15,0,0,0-1.73,2.24c-.27.68-.3,1.13-.33,1.13a.85.85,0,0,1,0-.32,3.92,3.92,0,0,1,.19-.85,4.91,4.91,0,0,1,1.75-2.35,5.52,5.52,0,0,1,2.87-1,4.79,4.79,0,0,1,.94,0A1,1,0,0,1,539.47,361.48Z"/><path class="cls-19" d="M531.24,364.46a15,15,0,0,1-5,0c0-.06,1.12,0,2.49,0S531.23,364.4,531.24,364.46Z"/><path class="cls-19" d="M534.57,364.47s-.09.22-.21.45-.18.45-.24.44-.09-.25.05-.52S534.54,364.43,534.57,364.47Z"/><path class="cls-19" d="M535.84,363s-.07.2-.25.37-.35.27-.39.23.07-.2.25-.37S535.8,363,535.84,363Z"/><path class="cls-19" d="M537.65,362.37c0,.05-.24.05-.49.13s-.43.2-.48.17.1-.25.41-.35S537.67,362.32,537.65,362.37Z"/><path class="cls-19" d="M538.93,362.06s-.08.13-.22.18-.27.05-.29,0,.08-.13.22-.18S538.91,362,538.93,362.06Z"/><path class="cls-30" d="M515.43,140.06,489,113.32l3.35-34.83.6-.69c.33-.38.7-.8,1.14-1.26a6.57,6.57,0,0,1,1.75-1.3,10.06,10.06,0,0,1,2.52-1c.83-.12,1.1-1.16.44-1.51s-2.94-.08-5.22,1.36-.9-2.52-.42-4,1.74-6,1.41-6.49c-.49-.72-1.37-.32-1.81,1.14s-2.08,5.74-2.84,5.47,1.78-7.61,1.78-7.61.8-1.49-.07-1.83c-1.56-.61-3.67,7.38-3.86,8.15-.13.53-1,.27-.8-.29s2.7-7.28,1.11-7.91c-1.22-.49-1.8,6.56-3.1,7.68s1-5.32-.19-5.74c-.44-.16-.79-.21-1.57,3.66a76.58,76.58,0,0,0-1.51,8.08h0L473.46,116l26,34.39Z"/><path class="cls-30" d="M528.88,63.5c-1.09.63,2.32,6.54.84,5.68s-3.32-7.7-4.42-7c-1.44.91,2.24,7,2.51,7.59s-.51.93-.73.43c-.32-.72-3.83-8.21-5.25-7.32-.79.49.26,1.81.26,1.81s3.81,6.78,3.12,7.17-3.07-3.51-3.77-4.88-1.63-1.59-2-.8c-.24.54,1.82,4.79,2.55,6.13s2.8,5,.3,4-4.79-.86-5.38-.4-.13,1.44.7,1.41a10.06,10.06,0,0,1,2.66.53,6.57,6.57,0,0,1,2,1c.51.37,1,.72,1.34,1l.72.57,14.26,35.15-13,30.15,20.08,7.48,9-39.87L534,74.49h0a76.57,76.57,0,0,0-2.93-7.68C529.62,63.15,529.28,63.26,528.88,63.5Z"/><path class="cls-28" d="M573.67,277.13l-13-67.1-18.42,1.58v-.15l-33.64,3s-1.58,77.06-2.13,77.06l9.21,70.25h0l26.56-1.21-10.27-69.93,3.79-56.12.76-1,15.37,57.37,52.33,59.23,17-16.49Z"/><path class="cls-19" d="M532.66,280.09a2.38,2.38,0,0,1,0-.57l.06-1.64.32-6L534.26,252l1.28-18.32v-.06l0,0,4.61-5.48,1.28-1.48a3.1,3.1,0,0,1,.48-.49,3.11,3.11,0,0,1-.39.56l-1.2,1.54-4.48,5.59,0-.11L534.78,252l-1.39,19.86-.48,6-.16,1.63A2.39,2.39,0,0,1,532.66,280.09Z"/><ellipse class="cls-19" cx="542.21" cy="217.88" rx="0.26" ry="6.42"/><path class="cls-19" d="M519.53,217.29a4.61,4.61,0,0,1,.83-.13l2.45-.3c2.13-.25,5.2-.59,8.88-1l.25,0v.25c0,3.15,0,6.79,0,10.65v.16l-.15.07-.19.09-6.42,3.16-.12.06-.11-.07-5.56-3.3-.11-.06v-.12l.11-7,.05-1.89a3,3,0,0,1,0-.63,4.69,4.69,0,0,1,0,.71l.05,1.93.11,6.85-.1-.18,5.6,3.23H525l6.41-3.18.19-.09-.14.23c0-3.86,0-7.5,0-10.65l.25.23c-3.59.32-6.62.56-8.76.72l-2.51.18A6.9,6.9,0,0,1,519.53,217.29Z"/><path class="cls-19" d="M545.43,214.74a4.63,4.63,0,0,1,.83-.13l2.45-.3c2.13-.25,5.2-.59,8.88-1l.25,0v.25c0,3.15,0,6.79,0,10.65v.16l-.15.07-.19.09-6.42,3.16-.12.06-.11-.07-5.56-3.3-.11-.06v-.12l.11-7,.05-1.89a3,3,0,0,1,0-.63,4.68,4.68,0,0,1,0,.71l.05,1.93.11,6.85-.1-.18,5.6,3.23h-.23l6.41-3.18.19-.09-.15.23c0-3.86,0-7.5,0-10.65l.25.23c-3.59.32-6.62.56-8.76.72l-2.51.18A6.87,6.87,0,0,1,545.43,214.74Z"/><ellipse class="cls-19" cx="525.74" cy="219.05" rx="6.22" ry="0.26" transform="translate(-9.55 24.5) rotate(-2.65)"/><ellipse class="cls-19" cx="551.52" cy="216.86" rx="6.11" ry="0.26" transform="translate(-14.84 42.38) rotate(-4.34)"/><ellipse class="cls-19" cx="523.8" cy="290.83" rx="6.09" ry="0.26" transform="translate(-31.46 65.8) rotate(-6.98)"/><path class="cls-19" d="M572,278.58c.05.15-2.87,1.17-6.18,3s-5.73,3.79-5.83,3.67a6.73,6.73,0,0,1,1.49-1.39,30.75,30.75,0,0,1,8.56-4.78A6.73,6.73,0,0,1,572,278.58Z"/><path class="cls-19" d="M509.64,61.6a1.5,1.5,0,0,1-.12-.22l-.32-.66c-.14-.29-.3-.66-.52-1.07l-.78-1.43c-.3-.53-.68-1.1-1.07-1.73s-.88-1.28-1.4-2a38,38,0,0,0-4-4.36,34.75,34.75,0,0,0-13.15-7.66A31.74,31.74,0,0,0,479.41,41,34.57,34.57,0,0,0,460.86,46a31.74,31.74,0,0,0-7,5.68,34.75,34.75,0,0,0-7.6,13.19A38,38,0,0,0,445,70.61c-.1.86-.18,1.67-.23,2.41s-.07,1.42-.06,2l0,1.63c0,.47.06.87.09,1.19l.05.73a1.5,1.5,0,0,1,0,.25,1.48,1.48,0,0,1,0-.25l-.08-.73c0-.32-.09-.72-.12-1.19l-.06-1.63c0-.61,0-1.3,0-2s.12-1.56.21-2.42a37.45,37.45,0,0,1,1.23-5.8,34.72,34.72,0,0,1,7.6-13.32,31.88,31.88,0,0,1,7.06-5.75,34.72,34.72,0,0,1,18.71-5,31.88,31.88,0,0,1,9,1.48A34.72,34.72,0,0,1,501.62,50a37.44,37.44,0,0,1,4,4.42c.51.71,1,1.37,1.39,2s.76,1.22,1,1.76l.76,1.45c.21.42.36.8.49,1.09l.29.67A1.47,1.47,0,0,1,509.64,61.6Z"/><path class="cls-19" d="M502.85,60a2.51,2.51,0,0,1-.28-.36c-.18-.24-.42-.61-.77-1.05A30.26,30.26,0,0,0,493,50.71a29.34,29.34,0,0,0-23.58-2.63A30,30,0,0,0,465,49.85c-.51.24-.89.47-1.16.6a2.5,2.5,0,0,1-.41.2,2.49,2.49,0,0,1,.38-.25c.26-.15.63-.4,1.13-.65a27.2,27.2,0,0,1,4.43-1.88,29,29,0,0,1,29.44,7,27.19,27.19,0,0,1,3.12,3.66c.34.46.56.84.72,1.09A2.48,2.48,0,0,1,502.85,60Z"/><path class="cls-21" d="M554.71,160.8,550.06,185c9.69,13.48,10.57,25,10.57,25l-52.06,4.47c1-8.16,6-25.84,6-25.84L507,162.84l-15.15-19.72,15-13.55c-.29.76,14.09,9.08,14.09,9.08l20.65.18a17.3,17.3,0,0,1,3,.59l10.09-26.16s7.8,11.48,5.19,25.56c-1.86,10-1.51,12.37-5.19,22"/><path class="cls-19" d="M516.95,142.43a4.13,4.13,0,0,1,.76.91,14.66,14.66,0,0,1,1.56,2.84,13.83,13.83,0,0,1,1,4.7,11.92,11.92,0,0,1-1.23,5.77,10.28,10.28,0,0,1-4,4.34,9.52,9.52,0,0,1-4.66,1.25,8.25,8.25,0,0,1-3.19-.62,5.48,5.48,0,0,1-.79-.4c-.17-.11-.26-.17-.25-.19a10.37,10.37,0,0,0,4.22.84,9.45,9.45,0,0,0,4.42-1.3,10,10,0,0,0,3.77-4.16,11.76,11.76,0,0,0,1.22-5.52,14.21,14.21,0,0,0-.91-4.58A28.38,28.38,0,0,0,516.95,142.43Z"/><path class="cls-19" d="M552.92,160c-.08,0,.36-1,.8-2.59a18.82,18.82,0,0,0-1-12.67c-.69-1.52-1.28-2.38-1.2-2.43s.2.18.48.56a11.79,11.79,0,0,1,1.05,1.71,17,17,0,0,1,1,12.94,11.79,11.79,0,0,1-.77,1.86C553.09,159.83,553,160.06,552.92,160Z"/><g class="cls-25"><path d="M545.95,183.52a2.09,2.09,0,0,0-2.08-.28,16.06,16.06,0,0,1-3.5.72c-2.23,0-4.24-1.21-6.29-2.07s-4.68-1.24-6.31.28a3.58,3.58,0,0,0-.52,4.45,3.49,3.49,0,0,0,2.17,1.43h0c5.2,1.47,9.68.39,14.77-1.65a3.92,3.92,0,0,0,1.67-1.05A1.47,1.47,0,0,0,545.95,183.52Z"/></g><g class="cls-25"><path d="M507.74,129.38a14.09,14.09,0,0,0-3.21,9.73c.34,3.48,2.7,6.86,6.08,7.76,2.32.62,4.85.06,7.12.83,4.19,1.41,6.41,6.9,10.82,7.29,4,.36,6.89-3.67,10.61-5.16a28.76,28.76,0,0,1,6.09-1.17c4.23-.7,8.39-2.73,10.86-6.24s2.87-8.6.3-12c-2.75-3.66-7.84-4.56-12.42-4.56a52.16,52.16,0,0,0-20.21,4.08,12.93,12.93,0,0,0-3.85,2.25,5.22,5.22,0,0,0-1.82,3.94"/></g><path class="cls-19" d="M567.27,126.61a5.2,5.2,0,0,0-3.24-4.14c-2-.77-4.36-.22-6.32-1.09-2.45-1.09-3.48-4-4.1-6.57s-1.21-5.49-3.32-7.14c-1.45-1.14-3.39-1.48-5-2.45-2.33-1.44-3.6-4.05-5.19-6.28A12.12,12.12,0,0,0,538,96.63l-.09-.13c-3.39-4.08-12.42-4.62-16.32-1l.15-.13c-7.28.55-11.9,12.3-12,19.76,0,4.64,1.45,9.49-.31,13.78-1,2.5-3.06,4.51-3.84,7.1a7.89,7.89,0,0,0,13.86,7c-.12,1.89,1.44,3.55,3.22,4.2a13.33,13.33,0,0,0,5.62.34c4-.33,8.7-1,10.77-4.51,1.39,2.08,4.12,2.94,6.62,2.75a20.24,20.24,0,0,0,7.12-1.45,2.9,2.9,0,0,1-.26-.41,6.5,6.5,0,0,0,1.08-.52c1.92-1.18,3.11-3.72,2.21-5.78l2.18,2.52a8.68,8.68,0,0,0,3.64-11,10.46,10.46,0,0,1,3.43,2.29A5.2,5.2,0,0,0,567.27,126.61Z"/><path class="cls-28" d="M566.35,129.71a3.53,3.53,0,0,0-.47-2.36,4.79,4.79,0,0,0-2.11-1.87,11.68,11.68,0,0,0-3.71-.86,15,15,0,0,1-4.65-1A5.59,5.59,0,0,1,553.3,122a8.22,8.22,0,0,1-1.29-2.54c-.63-1.84-.76-3.87-1.38-5.8a8.66,8.66,0,0,0-1.35-2.73,4.47,4.47,0,0,0-2.52-1.66c-1-.25-2.12-.23-3.2-.45a5.24,5.24,0,0,1-2.86-1.56,14.52,14.52,0,0,1-2.79-5.34,11.81,11.81,0,0,0-2.7-4.52,10.7,10.7,0,0,0-10.43-2.87,20,20,0,0,0-2.34.84A2.63,2.63,0,0,1,523,95a9.74,9.74,0,0,1,1.73-.69,10.84,10.84,0,0,1,6.79.2,11.08,11.08,0,0,1,4,2.56,12.17,12.17,0,0,1,2.84,4.65c.68,1.77,1.29,3.71,2.7,5.15a4.73,4.73,0,0,0,2.6,1.4c1,.2,2.11.18,3.23.45a5,5,0,0,1,2.8,1.84,9.12,9.12,0,0,1,1.43,2.9c.63,2,.75,4,1.35,5.81a6.07,6.07,0,0,0,3.13,4,14.94,14.94,0,0,0,4.51,1,11.72,11.72,0,0,1,3.79,1,4.92,4.92,0,0,1,2.15,2,3.42,3.42,0,0,1,.44,1.82A1.87,1.87,0,0,1,566.35,129.71Z"/><path class="cls-28" d="M553.57,144.12s.21-.09.55-.32a2.81,2.81,0,0,0,1-1.46,3.87,3.87,0,0,0-.18-2.77,6.71,6.71,0,0,0-2.64-2.66c-1.2-.76-2.69-1.34-4.15-2.26a7.82,7.82,0,0,1-2-1.78,7.44,7.44,0,0,1-1.24-2.58,40.89,40.89,0,0,1-.77-6c-.25-2-.88-4.2-2.65-5.42s-4-1.59-5.59-3.2a10.31,10.31,0,0,1-2.43-5.54c-.32-1.9-.45-3.71-.87-5.33a12.21,12.21,0,0,0-2-4.16,13.19,13.19,0,0,0-5.24-4.15c-1.48-.62-2.38-.74-2.36-.8a3,3,0,0,1,.65.09,11.3,11.3,0,0,1,1.8.52,13,13,0,0,1,5.46,4.11,12.45,12.45,0,0,1,2.13,4.27c.46,1.67.6,3.49.93,5.36a9.9,9.9,0,0,0,2.32,5.26c1.39,1.47,3.64,1.83,5.53,3.13a6,6,0,0,1,2.07,2.64,11.85,11.85,0,0,1,.78,3.13,41.91,41.91,0,0,0,.72,5.9,7,7,0,0,0,1.14,2.43,7.43,7.43,0,0,0,1.89,1.69c1.4.91,2.88,1.51,4.11,2.31a6.94,6.94,0,0,1,2.71,2.85,4,4,0,0,1,.1,3,2.81,2.81,0,0,1-1.14,1.48A1.58,1.58,0,0,1,553.57,144.12Z"/><path class="cls-28" d="M529.42,146.31a3.39,3.39,0,0,0,.66-2,5.73,5.73,0,0,0-.51-2.38c-.38-.89-1-1.82-1.52-3a5.9,5.9,0,0,1-.42-4.05,21.66,21.66,0,0,1,1.84-4.28,10,10,0,0,0,1.31-4.76A8.31,8.31,0,0,0,529,121c-1.1-1.48-2.46-2.73-3.54-4.19a9.55,9.55,0,0,1-1.29-2.34,9.12,9.12,0,0,1-.51-2.51,20.06,20.06,0,0,1,.36-4.65c.24-1.43.48-2.75.57-4a9.24,9.24,0,0,0-1.06-5.55,8.05,8.05,0,0,0-1.35-1.62,1.72,1.72,0,0,1,.46.31,5.14,5.14,0,0,1,1.06,1.2,9.19,9.19,0,0,1,1.26,5.68c-.06,1.24-.29,2.58-.51,4a20.05,20.05,0,0,0-.31,4.55,8.7,8.7,0,0,0,.5,2.37,9.11,9.11,0,0,0,1.24,2.2c1,1.4,2.4,2.64,3.55,4.18a8.78,8.78,0,0,1,1.83,5.23,10.44,10.44,0,0,1-1.39,5,21.84,21.84,0,0,0-1.85,4.17,5.54,5.54,0,0,0,.34,3.8c.49,1.11,1.08,2.06,1.45,3a5.76,5.76,0,0,1,.45,2.5,3.08,3.08,0,0,1-.48,1.53A1.5,1.5,0,0,1,529.42,146.31Z"/><path class="cls-28" d="M511.9,145.49a1.26,1.26,0,0,1-.29-.48,2.47,2.47,0,0,1,0-1.62,4.37,4.37,0,0,1,1.52-2.06,20.65,20.65,0,0,0,2.56-2.11,6.92,6.92,0,0,0,1.64-3.53,8.22,8.22,0,0,0-.71-4.43,10.27,10.27,0,0,1-1.05-5.1,18,18,0,0,1,1.9-5.25,11,11,0,0,0,1.34-5.18,22.49,22.49,0,0,0-1.08-5,15.18,15.18,0,0,1-.24-8.72,9.81,9.81,0,0,1,3.26-4.89,7.55,7.55,0,0,1,1.36-.86,2,2,0,0,1,.52-.2,15.27,15.27,0,0,0-1.76,1.22,9.91,9.91,0,0,0-3,4.84,15,15,0,0,0,.35,8.48,22.45,22.45,0,0,1,1.13,5.07,11.37,11.37,0,0,1-1.38,5.42,17.8,17.8,0,0,0-1.86,5.1,9.9,9.9,0,0,0,1,4.87,13,13,0,0,1,.68,2.34,7,7,0,0,1,0,2.33,7.24,7.24,0,0,1-1.8,3.71,19.6,19.6,0,0,1-2.65,2.09,4.24,4.24,0,0,0-1.51,1.9,2.48,2.48,0,0,0-.11,1.52C511.81,145.32,511.92,145.48,511.9,145.49Z"/></g><g id="Background_Complete" data-name="Background Complete"><path class="cls-31" d="M2.32,180.51s-6.4,3.08,2.06,16.54,14.08,20,14.08,20S20,220.21,17.32,221s-8.87.33-9.8,3.82,1.88,6.69,7.29,9.12,17.08,8.2,18.13,8.73,2.15,2,.39,2.76S18,248.85,19.68,255.2s17.83,10.65,19.6,11.15,2.23,1.19,2.18,2.14-4.69,1.41-8.5,2.32-8.08,2.64-6.83,6.22,11.23,10.44,34,10.63l10.55-.6,4.93-9.4c9.32-20.76,7.24-32.69,4.51-35.32s-6.08.52-8.5,3.61-4.77,7.1-5.65,6.76-1.31-1.06-1-2.87,3.12-18.32-2-22.46-13.13,7.05-14.6,8.32-2.31-.35-2.35-1.5-.41-14.18-.37-20.12-1.56-9.8-5.25-10.43-5.74,5.16-7.55,7.31-4-.6-4-.6-3.6-7.83-12.31-21.14-14.29-8.63-14.29-8.63"/><path class="cls-27" d="M9.88,192.58s.07.09.2.27l.55.81,2.09,3.13c1.81,2.72,4.39,6.67,7.57,11.57,6.36,9.8,15,23.4,24.55,38.46S63,275.52,69.29,285.35L76.76,297l2,3.17.52.83c.12.19.17.29.17.29s-.07-.09-.2-.27l-.55-.81-2.09-3.13c-1.81-2.72-4.39-6.67-7.57-11.57-6.36-9.8-15-23.41-24.55-38.47S26.37,218.33,20.07,208.5l-7.47-11.64-2-3.17-.52-.83C9.93,192.68,9.88,192.58,9.88,192.58Z"/><path class="cls-27" d="M16.11,225.72a3.1,3.1,0,0,1,.75.13c.48.11,1.17.28,2,.5,1.7.45,4,1.14,6.58,1.94L32,230.4l2,.62a3.11,3.11,0,0,1,.72.26,3.13,3.13,0,0,1-.75-.13c-.48-.11-1.17-.28-2-.52-1.69-.47-4-1.19-6.56-2l-6.54-2-2-.62A3.12,3.12,0,0,1,16.11,225.72Z"/><ellipse class="cls-27" cx="38.2" cy="219.74" rx="11.18" ry="0.18" transform="translate(-184.01 200.53) rotate(-75.2)"/><path class="cls-27" d="M48.92,254.34a3.25,3.25,0,0,1,.36-.69l1.09-1.82c.92-1.54,2.18-3.66,3.49-6.06s2.43-4.6,3.22-6.2l.95-1.9a3.25,3.25,0,0,1,.39-.68,3.24,3.24,0,0,1-.26.74c-.19.47-.47,1.13-.84,1.95-.74,1.63-1.82,3.87-3.14,6.27s-2.61,4.51-3.59,6c-.49.75-.9,1.35-1.19,1.76A3.23,3.23,0,0,1,48.92,254.34Z"/><path class="cls-27" d="M30.57,253.8a2.79,2.79,0,0,1,.72-.06l2,0c1.66,0,3.94,0,6.47.05s4.81.1,6.47.16l2,.09a2.78,2.78,0,0,1,.72.08,2.77,2.77,0,0,1-.72.06l-2,0c-1.66,0-3.94,0-6.47-.05s-4.81-.1-6.46-.16l-2-.09A2.78,2.78,0,0,1,30.57,253.8Z"/><path class="cls-27" d="M39.89,276.33a4.51,4.51,0,0,1,.92-.06l2.51,0c2.12,0,5.05,0,8.29,0s6.17.06,8.29.11l2.51.07a4.53,4.53,0,0,1,.92.08,4.51,4.51,0,0,1-.92.06l-2.51,0c-2.12,0-5.05,0-8.29,0s-6.17-.06-8.29-.11l-2.51-.07A4.53,4.53,0,0,1,39.89,276.33Z"/><path class="cls-27" d="M62.78,276.33a5.19,5.19,0,0,1,.44-.89l1.3-2.36c1.1-2,2.6-4.74,4.18-7.83s2.94-5.91,3.91-8l1.15-2.43a5.17,5.17,0,0,1,.46-.87,5.19,5.19,0,0,1-.33.93c-.24.59-.59,1.44-1.05,2.48-.91,2.08-2.24,4.93-3.82,8s-3.12,5.83-4.28,7.79c-.58,1-1.06,1.76-1.4,2.3A5.19,5.19,0,0,1,62.78,276.33Z"/><path class="cls-21" d="M56.06,263.46a8.24,8.24,0,0,0-1.48,6.28,14.55,14.55,0,0,0,2.59,6c2.43,3.52,6.59,6.17,10.49,7.94,1.68-4.45-.16-9.64-1.27-12.22-1.74-4.07-7.37-10.38-10.33-8"/><path class="cls-21" d="M67.31,291.88a7,7,0,0,0-5.16-4.82,9.34,9.34,0,0,0-7.09,1.35A3.93,3.93,0,0,0,53,291a3,3,0,0,0,1.4,2.71,6.1,6.1,0,0,0,3,.89c3.66.25,7.24-.17,9.84-2.76"/><path class="cls-19" d="M77.51,301.21a5,5,0,0,0-.52-.71l-1.5-1.88a24.69,24.69,0,0,0-5.71-5.5,15.11,15.11,0,0,0-7.49-2.52,10.25,10.25,0,0,0-2.41.18,6.23,6.23,0,0,0-.64.16c-.14,0-.22.07-.22.08a16.06,16.06,0,0,1,3.25-.2,15.6,15.6,0,0,1,7.33,2.56,26.58,26.58,0,0,1,5.71,5.38c.66.77,1.19,1.39,1.57,1.82A4.65,4.65,0,0,0,77.51,301.21Z"/><path class="cls-19" d="M59.92,268.64a1.79,1.79,0,0,0,.14.36l.46,1c.4.86,1,2.11,1.76,3.63,1.51,3.06,3.66,7.25,6.13,11.83s4.81,8.67,6.54,11.61c.87,1.47,1.58,2.65,2.08,3.46l.58.93a1.77,1.77,0,0,0,.22.31,1.79,1.79,0,0,0-.17-.35l-.53-1-2-3.51c-1.68-3-4-7.07-6.46-11.65s-4.65-8.75-6.21-11.78l-1.85-3.59-.51-1A1.79,1.79,0,0,0,59.92,268.64Z"/><path class="cls-21" d="M74,291.24a16.45,16.45,0,0,1,2.23-14.86c.78-1.07,2-2.14,3.27-1.82s1.85,1.84,2,3.16a14.06,14.06,0,0,1-7.28,13.79"/><path class="cls-19" d="M77.62,280.21a4.24,4.24,0,0,0-.51.65,8,8,0,0,0-.54.81c-.19.33-.44.69-.64,1.12a14.43,14.43,0,0,0-.66,1.42,16.19,16.19,0,0,0-.6,1.69A18.29,18.29,0,0,0,74,290a17.92,17.92,0,0,0,.31,4.11,15.62,15.62,0,0,0,.45,1.74,13.32,13.32,0,0,0,.54,1.47,12.2,12.2,0,0,0,.56,1.17,7.42,7.42,0,0,0,.48.84,4.22,4.22,0,0,0,.47.68c.06,0-.6-1-1.31-2.78a14.21,14.21,0,0,1-.5-1.46,16.39,16.39,0,0,1-.42-1.72,18.63,18.63,0,0,1-.28-4,19,19,0,0,1,.66-4,17.07,17.07,0,0,1,.57-1.68c.19-.52.42-1,.62-1.42C77,281.19,77.67,280.25,77.62,280.21Z"/></g></g></svg>