<svg xmlns="http://www.w3.org/2000/svg" viewBox="0 0 4689.09 2915.06"><defs><style>.cls-1{fill:#e2e2e2;}.cls-2{fill:#282828;}.cls-3{fill:#e82944;}.cls-4{fill:#fffbfd;}.cls-5{fill:#fff;}.cls-6{fill:#d3e5f1;}.cls-7{fill:#2460ad;}.cls-8{fill:#f3a97a;}.cls-9{fill:#7b573f;}.cls-10{fill:#d6d6d4;}.cls-11{fill:#e4e4e3;}.cls-12{fill:#fab281;}.cls-13{fill:#f5a97e;}.cls-14{fill:#f3f3f3;}.cls-15{fill:#015075;}.cls-16{fill:#443933;}.cls-17{fill:#3c3c3c;}.cls-18{fill:#8fbcd9;}.cls-19{fill:#f5a879;}.cls-20{fill:#005278;}.cls-21{fill:#5e4440;}.cls-22{fill:#75777f;}.cls-23{fill:#fecf07;}.cls-24{fill:#3f4455;}</style></defs><title>gen-ideas</title><g id="Capa_2" data-name="Capa 2"><g id="Layer_1" data-name="Layer 1"><ellipse id="_Trazado_" data-name="&lt;Trazado&gt;" class="cls-1" cx="383.45" cy="2707.8" rx="383.45" ry="75.12"/><ellipse id="_Trazado_2" data-name="&lt;Trazado&gt;" class="cls-1" cx="4203.83" cy="2862.48" rx="485.26" ry="52.58"/><ellipse id="_Trazado_3" data-name="&lt;Trazado&gt;" class="cls-1" cx="2339.97" cy="2632.68" rx="1930.52" ry="118.18"/><g id="_Grupo_" data-name="&lt;Grupo&gt;"><g id="_Grupo_2" data-name="&lt;Grupo&gt;"><path id="_Trazado_4" data-name="&lt;Trazado&gt;" class="cls-2" d="M4027.38,593.93a116.62,116.62,0,0,0-116.62-116.62H769.18A116.63,116.63,0,0,0,652.55,593.93V2315.4H4027.38Z"/><path id="_Trazado_5" data-name="&lt;Trazado&gt;" class="cls-2" d="M652.55,2315.4v195.55a116.63,116.63,0,0,0,116.63,116.63H3910.75a116.62,116.62,0,0,0,116.62-116.63V2315.4Z"/></g><circle id="_Trazado_6" data-name="&lt;Trazado&gt;" class="cls-3" cx="2390.74" cy="1396.35" r="506.59"/><g id="_Grupo_3" data-name="&lt;Grupo&gt;"><rect id="_Trazado_7" data-name="&lt;Trazado&gt;" class="cls-3" x="652.55" y="2264.38" width="1089.52" height="51.02"/><rect id="_Trazado_8" data-name="&lt;Trazado&gt;" class="cls-4" x="1742.07" y="2264.38" width="2285.31" height="51.02"/></g><circle id="_Trazado_9" data-name="&lt;Trazado&gt;" class="cls-4" cx="1512.25" cy="2289.89" r="59.95"/><polygon id="_Trazado_10" data-name="&lt;Trazado&gt;" class="cls-4" points="880.73 2463.4 880.73 2401.3 934.51 2432.35 988.29 2463.4 934.51 2494.45 880.73 2525.5 880.73 2463.4"/><g id="_Grupo_4" data-name="&lt;Grupo&gt;"><rect id="_Rectángulo_" data-name="&lt;Rectángulo&gt;" class="cls-4" x="1104.38" y="2401.3" width="22.92" height="124.2"/><rect id="_Rectángulo_2" data-name="&lt;Rectángulo&gt;" class="cls-4" x="1060.2" y="2401.3" width="22.92" height="124.2"/></g><rect id="_Rectángulo_3" data-name="&lt;Rectángulo&gt;" class="cls-4" x="1213.07" y="2402.98" width="120.84" height="120.84"/><g id="_Grupo_5" data-name="&lt;Grupo&gt;"><polygon id="_Trazado_11" data-name="&lt;Trazado&gt;" class="cls-4" points="3428.55 2430.53 3394.89 2430.53 3394.89 2496.26 3428.55 2496.26 3467.83 2518.3 3467.83 2408.49 3428.55 2430.53"/><g id="_Grupo_6" data-name="&lt;Grupo&gt;"><path id="_Trazado_12" data-name="&lt;Trazado&gt;" class="cls-4" d="M3519.31,2462.68a54.26,54.26,0,0,0-45.87-53.54v12.94a41.44,41.44,0,0,1,0,81.2v12.94A54.26,54.26,0,0,0,3519.31,2462.68Z"/><path id="_Trazado_13" data-name="&lt;Trazado&gt;" class="cls-4" d="M3502.58,2462.68a37.49,37.49,0,0,0-29.14-36.49v13.25a24.66,24.66,0,0,1,0,46.47v13.25A37.49,37.49,0,0,0,3502.58,2462.68Z"/></g></g><path id="_Trazado_compuesto_" data-name="&lt;Trazado compuesto&gt;" class="cls-5" d="M3574.79,2479.74l6.51,13.6,13.32-6.34a39.87,39.87,0,0,0,11.86,10.64l-4.95,14,14.21,5,4.94-14a39.62,39.62,0,0,0,15.91-.8l6.37,13.34,13.59-6.49-6.33-13.33a40.55,40.55,0,0,0,10.62-11.86l13.95,4.94,5-14.21-14-4.94a39.85,39.85,0,0,0-.78-15.91l13.32-6.4-6.48-13.59-13.36,6.35a39.53,39.53,0,0,0-11.85-10.63l4.95-14-14.21-5-4.94,14a39.14,39.14,0,0,0-15.9.8l-6.36-13.34-13.62,6.48,6.35,13.36a38.88,38.88,0,0,0-10.61,11.86l-14-5-5,14.2,14,5a39.34,39.34,0,0,0,.78,15.91Zm36.32-21.84a16.45,16.45,0,1,1,10,21A16.43,16.43,0,0,1,3611.11,2457.9Z"/><g id="_Grupo_7" data-name="&lt;Grupo&gt;"><polygon id="_Trazado_14" data-name="&lt;Trazado&gt;" class="cls-5" points="3771.95 2425.16 3790.65 2425.16 3790.65 2410.37 3757.16 2410.37 3757.16 2443.86 3771.95 2443.86 3771.95 2425.16"/><polygon id="_Trazado_15" data-name="&lt;Trazado&gt;" class="cls-5" points="3848.42 2425.16 3848.42 2443.86 3863.21 2443.86 3863.21 2410.37 3829.72 2410.37 3829.72 2425.16 3848.42 2425.16"/><polygon id="_Trazado_16" data-name="&lt;Trazado&gt;" class="cls-5" points="3771.95 2501.63 3771.95 2482.93 3757.16 2482.93 3757.16 2516.42 3790.65 2516.42 3790.65 2501.63 3771.95 2501.63"/><polygon id="_Trazado_17" data-name="&lt;Trazado&gt;" class="cls-5" points="3848.42 2501.63 3829.72 2501.63 3829.72 2516.42 3863.21 2516.42 3863.21 2482.93 3848.42 2482.93 3848.42 2501.63"/></g><g id="_Grupo_8" data-name="&lt;Grupo&gt;"><polygon id="_Trazado_18" data-name="&lt;Trazado&gt;" class="cls-6" points="2434.04 1285.3 2246.97 1177.3 2528.97 1452.59 2626.38 1396.35 2434.04 1285.3"/><polygon id="_Trazado_19" data-name="&lt;Trazado&gt;" class="cls-4" points="2241.69 1174.26 2241.69 1396.35 2241.69 1618.45 2434.04 1507.4 2528.97 1452.59 2246.97 1177.3 2241.69 1174.26"/></g><path id="_Trazado_20" data-name="&lt;Trazado&gt;" class="cls-4" d="M1950.44,1472.14a11.66,11.66,0,0,1-11.45-9.57c-.38-2.1-9.24-52.21-.86-122.13,7.75-64.6,32.41-158.82,105.9-240.82a11.66,11.66,0,0,1,17.36,15.56c-133,148.4-99.82,341.29-99.47,343.22a11.68,11.68,0,0,1-11.48,13.74Z"/><path id="_Trazado_21" data-name="&lt;Trazado&gt;" class="cls-4" d="M2077.37,1092.47a11.65,11.65,0,0,1-9-19c1.26-1.55,31.4-38.23,83.37-66a11.66,11.66,0,1,1,11,20.57c-47.62,25.4-76,59.76-76.26,60.1A11.65,11.65,0,0,1,2077.37,1092.47Z"/><path id="_Trazado_22" data-name="&lt;Trazado&gt;" class="cls-4" d="M2196.14,1008a11.66,11.66,0,0,1-5.65-21.86c4.67-2.58,116.11-62.91,271.61-40.74a11.66,11.66,0,0,1-3.29,23.08c-147.42-21-256,37.48-257.06,38.08A11.62,11.62,0,0,1,2196.14,1008Z"/><path id="_Trazado_23" data-name="&lt;Trazado&gt;" class="cls-4" d="M684.09,763.15a11.66,11.66,0,0,1-11.66-11.66V659.88a11.66,11.66,0,0,1,23.31,0v91.61A11.66,11.66,0,0,1,684.09,763.15Z"/><path id="_Trazado_24" data-name="&lt;Trazado&gt;" class="cls-4" d="M684.09,630a11.66,11.66,0,0,1-11.66-11.66c0-97.06,48.45-117.43,89.1-117.43H921.14a11.66,11.66,0,1,1,0,23.31H761.53c-28.24,0-65.79,9.76-65.79,94.12A11.66,11.66,0,0,1,684.09,630Z"/><path id="_Trazado_25" data-name="&lt;Trazado&gt;" class="cls-4" d="M1048.64,524.21H965.53a11.66,11.66,0,1,1,0-23.31h83.11a11.66,11.66,0,0,1,0,23.31Z"/></g><g id="_Grupo_9" data-name="&lt;Grupo&gt;"><path id="_Trazado_26" data-name="&lt;Trazado&gt;" class="cls-7" d="M4421.08,2631s208.58-140.9,253-74.16,2.12,191.68-296.46,290.67l-149-31.59h-13V2653.21Z"/><path id="_Trazado_27" data-name="&lt;Trazado&gt;" class="cls-7" d="M4021.26,2631s-208.58-140.9-253-74.16-2.12,191.68,296.46,290.67l149-31.59h13V2653.21Z"/><path id="_Trazado_28" data-name="&lt;Trazado&gt;" class="cls-3" d="M4298.41,2152.7s160.94,26.52,174.34,61.29,101.93,254.71,80.47,286.9-72.42,90.35-174.34,100.16l-8-89.43,56.65-67.26v-47.13l-94.2,143.89H4086.52l-51-143.89-13.41,47.13,53.64,112.47L4057,2601s-134.11-46.52-155.57-92.12,69.74-294.72,104.61-320.37,152.89-38.46,152.89-38.46Z"/><path id="_Trazado_29" data-name="&lt;Trazado&gt;" class="cls-8" d="M4302.71,2127.4v73.73s-12.29,42.13-66.71,42.13-79.87-39.5-79.87-39.5V2102Z"/><path id="_Trazado_30" data-name="&lt;Trazado&gt;" class="cls-9" d="M4307.09,2087.91l21.94-8.77s19.31-43.1,19.31-53.59,14.92-102.65-28.09-122c0,0-5.27-43.89-81.62-41.25S4107,1918.51,4114,1968.54s19.32,112.35,23.7,112.35S4307.09,2087.91,4307.09,2087.91Z"/><polygon id="_Trazado_31" data-name="&lt;Trazado&gt;" class="cls-10" points="4354.74 2680.6 4392.29 2680.6 4467.4 2601.05 3989.96 2601.05 4073.11 2680.6 4354.74 2680.6"/><polygon id="_Trazado_32" data-name="&lt;Trazado&gt;" class="cls-11" points="4227.39 2680.6 4392.29 2680.6 4467.4 2433.28 3989.96 2433.28 4073.11 2680.6 4227.39 2680.6"/><path id="_Trazado_33" data-name="&lt;Trazado&gt;" class="cls-12" d="M4320.26,2091.61s-2.63,106-85.14,106-92.16-99.18-92.16-99.18l-5.26-103.79L4257.94,1951l62.32,43.66Z"/><ellipse id="_Trazado_34" data-name="&lt;Trazado&gt;" class="cls-12" cx="4332.77" cy="2064.17" rx="31.23" ry="17.58" transform="translate(1277.58 5765.46) rotate(-75.94)"/><ellipse id="_Trazado_35" data-name="&lt;Trazado&gt;" class="cls-12" cx="4127.57" cy="2064.17" rx="17.58" ry="31.23" transform="translate(-377.87 1064.84) rotate(-14.06)"/><path id="_Trazado_36" data-name="&lt;Trazado&gt;" class="cls-9" d="M4150.49,2163.28c-17.34-29.73-28.27-81-19.51-168.63,0,0,15.55,105.56,25.78,121.54,5.45,8.52,13.82,8,24.8,5.57,40-11.77,74-3.75,82.92-1.19,13.57,3.19,23.72,5.45,30-4.37,10.23-16,25.77-121.54,25.77-121.54,8,80,0,129.61-14.12,160.16h0s-19.28,52.07-76.72,52.07c-18.2,0-32.78-4.38-44.22-10.36a75.25,75.25,0,0,1-27.92-23.07,63.54,63.54,0,0,1-6.78-10.17Z"/><path id="_Trazado_37" data-name="&lt;Trazado&gt;" class="cls-12" d="M4192.57,2144.83a6,6,0,0,0,6,6h50.92a6,6,0,0,0,6-6h0a6,6,0,0,0-6-6h-50.92a6,6,0,0,0-6,6Z"/><polygon id="_Trazado_38" data-name="&lt;Trazado&gt;" class="cls-13" points="4284.5 2729.44 4284.5 2788.73 4219.91 2827.91 4176.5 2785.56 4284.5 2729.44"/><g id="_Grupo_10" data-name="&lt;Grupo&gt;"><path id="_Trazado_39" data-name="&lt;Trazado&gt;" class="cls-14" d="M4404.14,2811.9l13.77-18.4s51.46,7.06,35.26,59.91-161.51,24.26-226.5-5.91S4404.14,2811.9,4404.14,2811.9Z"/><path id="_Trazado_40" data-name="&lt;Trazado&gt;" class="cls-15" d="M4215.68,2825.22s-5.55,16.46,11,22.28,91.71,29.26,111.83,29.72,105,15.28,113.89-37.66-62-46.38-62-46.38l-163-22Z"/><path id="_Trazado_41" data-name="&lt;Trazado&gt;" class="cls-14" d="M4252.74,2840.89a3.43,3.43,0,0,0,1.64-.42c23.31-12.58,18.93-52.79,18.73-54.5a3.45,3.45,0,0,0-6.86.79h0c0,.37,4,37.27-15.15,47.63a3.45,3.45,0,0,0,1.64,6.49Z"/><path id="_Trazado_42" data-name="&lt;Trazado&gt;" class="cls-14" d="M4275,2845.12a3.44,3.44,0,0,0,2.59-1.17c24.27-27.58,15.91-57.3,15.54-58.55a3.45,3.45,0,0,0-6.63,1.94,52,52,0,0,1,1.17,16.78,59.73,59.73,0,0,1-15.27,35.27,3.45,3.45,0,0,0,2.59,5.73Z"/><path id="_Trazado_43" data-name="&lt;Trazado&gt;" class="cls-14" d="M4298.26,2856.86a3.46,3.46,0,0,0,2.87-1.53c26.25-39.28,14.46-62.78,13.95-63.76a3.45,3.45,0,0,0-6.12,3.18c.07.14,2.59,5.35,2.25,14.74-.33,8.85-3.34,23.32-15.81,42a3.45,3.45,0,0,0,2.87,5.37Z"/></g><g id="_Grupo_11" data-name="&lt;Grupo&gt;"><path id="_Trazado_44" data-name="&lt;Trazado&gt;" class="cls-14" d="M4028.58,2802.65l-13.77-18.4s-51.46,7.06-35.26,59.91,161.51,24.26,226.5-5.92S4028.58,2802.65,4028.58,2802.65Z"/><path id="_Trazado_45" data-name="&lt;Trazado&gt;" class="cls-15" d="M4217,2816s5.55,16.45-11,22.28-91.71,29.26-111.83,29.72-105,15.28-113.89-37.66,62-46.38,62-46.38l163-22Z"/><path id="_Trazado_46" data-name="&lt;Trazado&gt;" class="cls-14" d="M4180,2831.63a3.46,3.46,0,0,1-1.64-.41c-23.3-12.58-18.93-52.8-18.73-54.5a3.45,3.45,0,0,1,6.86.79h0c0,.37-4,37.27,15.15,47.63a3.45,3.45,0,0,1-1.64,6.49Z"/><path id="_Trazado_47" data-name="&lt;Trazado&gt;" class="cls-14" d="M4157.75,2835.87a3.44,3.44,0,0,1-2.59-1.17c-24.27-27.58-15.91-57.3-15.54-58.55a3.45,3.45,0,0,1,6.63,1.94,52.08,52.08,0,0,0-1.17,16.79,59.74,59.74,0,0,0,15.27,35.27,3.45,3.45,0,0,1-2.59,5.73Z"/><path id="_Trazado_48" data-name="&lt;Trazado&gt;" class="cls-14" d="M4134.46,2847.61a3.45,3.45,0,0,1-2.87-1.54c-26.25-39.28-14.47-62.78-14-63.76a3.45,3.45,0,0,1,6.13,3.19c-.07.14-2.59,5.35-2.25,14.74.33,8.85,3.34,23.33,15.81,42a3.45,3.45,0,0,1-2.87,5.37Z"/></g><path id="_Trazado_49" data-name="&lt;Trazado&gt;" class="cls-13" d="M4172.27,2744.84l-19.06,65.07,73.46,18s24-7.41,18.66-34.41S4172.27,2744.84,4172.27,2744.84Z"/><path id="_Trazado_50" data-name="&lt;Trazado&gt;" class="cls-7" d="M4172.27,2744.84l-19.06,65.07s-138.7-22.33-187.4-38.69,68.82-71.42,68.82-71.42Z"/></g><g id="_Grupo_12" data-name="&lt;Grupo&gt;"><polygon id="_Trazado_51" data-name="&lt;Trazado&gt;" class="cls-16" points="353.32 1482.9 267.49 1389.39 293.4 1338.11 399.41 1442.6 384.16 1486.83 353.32 1482.9"/><polygon id="_Trazado_52" data-name="&lt;Trazado&gt;" class="cls-5" points="279.03 1386.19 351.46 1467.6 376.47 1431.7 296.34 1351.57 279.03 1386.19"/><g id="_Grupo_13" data-name="&lt;Grupo&gt;"><path id="_Trazado_53" data-name="&lt;Trazado&gt;" class="cls-17" d="M318.08,2719.06c22.5-4.18,111.42-43.83,141.07-51.09.55-8.29,0-19.1-2.27-33.39-9.17-58.92-77.91-18.87-77.91-18.87s-36.28,29.49-59.6,42.3-72.43,25.21-74.65,37.86c-.64,3.66-1.37,7.13-1.92,10.3C260.14,2711.5,299.41,2722.53,318.08,2719.06Z"/><path id="_Trazado_54" data-name="&lt;Trazado&gt;" class="cls-18" d="M318.08,2719.06c-18.67,3.47-57.95-7.55-75.27-12.89-1.34,7.78-1.55,13.67,3.52,15.74,7.12,2.91,62.43,12.34,81.77,9.93s92-24.19,105.82-31.36c10.45-5.43,23.5-6.65,25.24-32.51C429.5,2675.23,340.58,2714.88,318.08,2719.06Z"/></g><g id="_Grupo_14" data-name="&lt;Grupo&gt;"><path id="_Trazado_55" data-name="&lt;Trazado&gt;" class="cls-17" d="M454.84,2727.92c22-6.21,107-53.79,135.84-63.7-.2-8.3-1.78-19-5.3-33-14.49-57.85-79.3-11.71-79.3-11.71s-33.44,32.67-55.5,47.55-69.84,31.69-70.9,44.49c-.3,3.7-.72,7.23-1,10.43C396.45,2725.67,436.57,2733.07,454.84,2727.92Z"/><path id="_Trazado_56" data-name="&lt;Trazado&gt;" class="cls-18" d="M454.84,2727.92c-18.27,5.15-58.39-2.25-76.13-6-.63,7.87-.3,13.76,4.93,15.35,7.36,2.24,63.3,6.61,82.33,2.45s89.45-32.46,102.53-40.85c9.91-6.36,22.8-8.76,22.17-34.67C561.82,2674.14,476.87,2721.72,454.84,2727.92Z"/></g><path id="_Trazado_57" data-name="&lt;Trazado&gt;" class="cls-19" d="M408.48,1364.06l-11.85,15.61s-15.46,197.74-20.58,237-39.26,191.16-30.72,209.94,30.89-32.43,30.89-32.43l78.64-401.1Z"/><path id="_Trazado_58" data-name="&lt;Trazado&gt;" class="cls-20" d="M408.48,1775.4l-63.15,51.21s-13,92.17-1.36,160.44-15,235.54,0,273.09,25.52,363.08,25.52,363.08,69.24,6.27,88,2.85,9-176.48,9-176.48,5.12-191.16,0-204.82S487,2026.3,487,2026.3s10.24,249.19,11.95,308.93-1.43,290.13-1.43,290.13,71.46,5.72,89.15-1.75c15.79-6.67,36.88-356.45,47.12-404.34S673,1987,673,1987s34.14-97.29,10.24-170.68S408.48,1775.4,408.48,1775.4Z"/><path id="_Trazado_59" data-name="&lt;Trazado&gt;" class="cls-7" d="M711.76,1214.17l-14.94-11.71s-103.85,34-143.09,24.27l4-12.56s-67.83,0-107.08,29.86-52,117.75-55.46,146.76l25.6,6.83s-9.39,124.58-9.39,133.11c0,6.37-13.78,134.41-26.81,211.38l-15.86,54s85.33,57.17,122.87,58,201.37,0,201.37,0,8.53-138.23,14.51-163.83,66.55-176.63,75.09-214.17S850.85,1291,711.76,1214.17Z"/><path id="_Trazado_60" data-name="&lt;Trazado&gt;" class="cls-19" d="M538.27,1192.26s-.95,23.22-6.16,37-8.53,50.71,13.27,54.49,118.94-21,153.53-77.53c0,0-15.16-25.77-19.9-48s-16.11-73-10-93.35-1.37-101.1-20.35-102.68S538.27,1192.26,538.27,1192.26Z"/><path id="_Trazado_61" data-name="&lt;Trazado&gt;" class="cls-12" d="M654,1078.6s10.3,68.66-44.63,95-88.86,38-96.26,30.2-7.58-16.74-9-20.06-7.58-8.06-7.11-13.74c0,0-5.21-1.42-4.74-8.53s-1.42-20.85-2.84-22.27-16.59,8.05-16.59-7.11,5.69-37,1.9-46-20.38-33.17-19.9-51.65c0,0,12.32-87.66,96.67-88.14s102.36,12.79,107.57,31.75-4.74,98.18-4.74,98.18"/><path id="_Trazado_62" data-name="&lt;Trazado&gt;" class="cls-19" d="M669.62,1408.44s51.2,41,97.29,58c0,0-64.05,160.44-73.84,186s-11.5,17.07-23.44,13.65-259.44-126.88-293.57-137.69-59.74-9.1-66.56-33-4-65.5-12.57-74,57.71,33.07,71.84,33.07-6.35-32.43-6.35-46.08,17.07-15.36,20.48,0,25.92,22.19,39.25,47.79-.65,28.89,13.33,35.78,149.77,24,203.06,56.38C638.53,1548.4,637.19,1463.06,669.62,1408.44Z"/><path id="_Trazado_63" data-name="&lt;Trazado&gt;" class="cls-21" d="M681.38,941.11c-4.26-13.74-31.67-79.37-153.13-55.44-118.93,23.43-87.6,138.37-78.59,149.74,4.85,6.13,18.08-6.45,34.22-22.24,0,0,33.08-26.94,50.31-28.66s57.24,10.53,71.21,17.34h0c25.87,17.68,22,52,22,52l14.92,4s10.19-21,20.69-25.29,5,62.13,5,62.13C711.94,1058.74,685.64,954.86,681.38,941.11Z"/><ellipse id="_Trazado_64" data-name="&lt;Trazado&gt;" class="cls-12" cx="660.62" cy="1050.35" rx="34.16" ry="21.75" transform="translate(-475.04 1550.28) rotate(-81.59)"/></g><path class="cls-22" d="M764.88,661.44a58.52,58.52,0,1,0,117,0h24.18V561H740.7V661.44Z"/><path class="cls-23" d="M823.4,137c101.61,0,184,82.37,184,184A183.22,183.22,0,0,1,966,437.23C910.91,499.11,912.93,561,912.93,561H733.88s2-61.89-53.07-123.77A184,184,0,0,1,823.4,137Z"/><rect class="cls-24" x="719.27" y="650.55" width="208.27" height="21.79"/><path class="cls-24" d="M912.93,571.89H722.61l.37-11.25c0-.54.93-58.61-50.31-116.18A195.42,195.42,0,0,1,628.53,321c0-107.45,87.42-194.88,194.88-194.88S1018.28,213.51,1018.28,321a195.26,195.26,0,0,1-43.83,123.15c-51.55,57.91-50.64,116-50.63,116.56l.3,11.18ZM744.27,550.11H902.54c2-21.58,11.44-70.81,55.33-120.12a173.2,173.2,0,0,0,38.63-109c0-95.44-77.64-173.09-173.09-173.09S650.31,225.52,650.31,321a173.36,173.36,0,0,0,38.93,109.37C732.91,479.37,742.3,528.54,744.27,550.11Z"/><path class="cls-24" d="M823.4,730.86a78.93,78.93,0,0,1-56.18-23.27l15.4-15.4a57.67,57.67,0,0,0,81.56,0l15.4,15.4A78.93,78.93,0,0,1,823.4,730.86Z"/><rect class="cls-24" x="719.27" y="600.19" width="208.27" height="21.79"/><ellipse class="cls-5" cx="740.7" cy="289.28" rx="59.71" ry="44.18" transform="translate(225.16 894.7) rotate(-70.92)"/><rect class="cls-24" x="812.51" width="21.79" height="84.35"/><rect class="cls-24" x="673.12" y="37.35" width="21.78" height="84.36" transform="translate(51.89 352.68) rotate(-30)"/><rect class="cls-24" x="571.07" y="139.39" width="21.79" height="84.36" transform="translate(133.74 594.79) rotate(-60)"/><rect class="cls-24" x="502.44" y="310.07" width="84.35" height="21.79"/><rect class="cls-24" x="539.79" y="449.47" width="84.36" height="21.79" transform="translate(-152.21 352.65) rotate(-30)"/><rect class="cls-24" x="1053.95" y="418.19" width="21.79" height="84.36" transform="translate(133.73 1152.36) rotate(-60)"/><rect class="cls-24" x="920.62" y="68.64" width="84.36" height="21.78" transform="translate(412.37 873.47) rotate(-59.99)"/><rect class="cls-24" x="1022.66" y="170.68" width="84.36" height="21.79" transform="matrix(0.87, -0.5, 0.5, 0.87, 51.88, 556.76)"/><rect class="cls-24" x="1060.01" y="310.07" width="84.36" height="21.79"/></g></g></svg>